So effervescent and charming that one can easily forget its importance in film history, Jean Vigo’s enormously influential portrait of prankish boarding-school students is one of cinema’s great acts of rebellion. Based on the director’s own experiences as a youth, Zéro de conduite presents childhood as a time of unfettered imagination and brazen rule-flouting. It’s a sweet-natured vision of sabotage made vivid by dynamic visual experiments—including the famous, blissful slow-motion pillow fight.

   General
      Complete name : Zero.de.conduite.Jeunes.diables.au.college.1933.720p.BluRay.x264-GABE.mkv
      Format : Matroska
      File size : 1.29 GiB
      Duration : 44mn 28s
      Overall bit rate : 4 150 Kbps
      Encoded date : UTC 2011-09-23 11:26:06
      Writing application : mkvmerge v4.5.0 ('Speed of Light') built on Feb  1 2011 02:10:32
      Writing library : libebml v1.2.0 + libmatroska v1.1.0
   Video #1
      ID : 1
      Format : AVC
      Format/Info : Advanced Video Codec
      Format profile : High@L3.1
      Format settings, CABAC : Yes
      Format settings, ReFrames : 4 frames
      Muxing mode : Container profile=Unknown@3.1
      Codec ID : V_MPEG4/ISO/AVC
      Duration : 44mn 25s
      Bit rate : 3 683 Kbps
      Nominal bit rate : 3 764 Kbps
      Width : 844 pixels
      Height : 720 pixels
      Display aspect ratio : 1.172
      Frame rate mode : Variable
      Frame rate : 23.976 fps
      Resolution : 24 bits
      Colorimetry : 4:2:0
      Scan type : Progressive
      Bits/(Pixel*Frame) : 0.253
      Stream size : 1.14 GiB (89%)
      Writing library : x264 core 112     
   Audio #2
      ID : 2
      Format : AC-3
      Format/Info : Audio Coding 3
      Codec ID : A_AC3
      Duration : 44mn 28s
      Bit rate mode : Constant
      Bit rate : 192 Kbps
      Channel(s) : 1 channel
      Channel positions : C
      Sampling rate : 48.0 KHz
      Stream size : 61.1 MiB (5%)
      Language : French
   Audio #3
      ID : 3
      Format : AC-3
      Format/Info : Audio Coding 3
      Codec ID : A_AC3
      Duration : 44mn 28s
      Bit rate mode : Constant
      Bit rate : 192 Kbps
      Channel(s) : 1 channel
      Channel positions : C
      Sampling rate : 48.0 KHz
      Stream size : 61.1 MiB (5%)
      Title : Commentary
   Text #4
      ID : 4
      Format : UTF-8
      Codec ID : S_TEXT/UTF8
      Codec ID/Info : UTF-8 Plain Text
   Text #5
      ID : 5
      Format : UTF-8
      Codec ID : S_TEXT/UTF8
      Codec ID/Info : UTF-8 Plain Text
      Language : Romanian
   Text #6
      ID : 6
      Format : UTF-8
      Codec ID : S_TEXT/UTF8
      Codec ID/Info : UTF-8 Plain Text
      Language : Russian
 
http://www.imdb.com/title/tt0024803/

French audio; English, Romanian and Russian subtitles muxed in mkv, Portuguese as srt

Ported at KG by prasopes, whom we thank